<?xml version="1.0" encoding="UTF-8" standalone="no"?>
<!-- Created with Inkscape (http://www.inkscape.org/) -->
<svg xmlns:dc="http://purl.org/dc/elements/1.1/" xmlns:cc="http://creativecommons.org/ns#" xmlns:rdf="http://www.w3.org/1999/02/22-rdf-syntax-ns#" xmlns:svg="http://www.w3.org/2000/svg" xmlns="http://www.w3.org/2000/svg" xmlns:xlink="http://www.w3.org/1999/xlink" xmlns:sodipodi="http://sodipodi.sourceforge.net/DTD/sodipodi-0.dtd" xmlns:inkscape="http://www.inkscape.org/namespaces/inkscape" width="744.09448819" height="1052.3622047" id="svg2" sodipodi:version="0.32" inkscape:version="0.47 r22583" sodipodi:docname="rubberduckyellow.svg" inkscape:output_extension="org.inkscape.output.svg.inkscape" version="1.1">
  <defs id="defs4">
    <linearGradient inkscape:collect="always" id="linearGradient3163">
      <stop style="stop-color:#fff6d5;stop-opacity:1;" offset="0" id="stop3165"/>
      <stop style="stop-color:#fff6d5;stop-opacity:0;" offset="1" id="stop3167"/>
    </linearGradient>
    <linearGradient inkscape:collect="always" id="linearGradient3155">
      <stop style="stop-color:#ffcc00;stop-opacity:1;" offset="0" id="stop3157"/>
      <stop style="stop-color:#ffcc00;stop-opacity:0;" offset="1" id="stop3159"/>
    </linearGradient>
    <linearGradient inkscape:collect="always" id="linearGradient3145">
      <stop style="stop-color:#ffcc00;stop-opacity:1;" offset="0" id="stop3147"/>
      <stop style="stop-color:#ffcc00;stop-opacity:0;" offset="1" id="stop3149"/>
    </linearGradient>
    <linearGradient inkscape:collect="always" id="linearGradient3137">
      <stop style="stop-color:#ffcc00;stop-opacity:1;" offset="0" id="stop3139"/>
      <stop style="stop-color:#ffcc00;stop-opacity:0;" offset="1" id="stop3141"/>
    </linearGradient>
    <linearGradient inkscape:collect="always" id="linearGradient3113">
      <stop style="stop-color:#d4aa00;stop-opacity:1;" offset="0" id="stop3115"/>
      <stop style="stop-color:#d4aa00;stop-opacity:0;" offset="1" id="stop3117"/>
    </linearGradient>
    <linearGradient inkscape:collect="always" id="linearGradient3105">
      <stop style="stop-color:#ffcc00;stop-opacity:1;" offset="0" id="stop3107"/>
      <stop style="stop-color:#ffcc00;stop-opacity:0;" offset="1" id="stop3109"/>
    </linearGradient>
    <linearGradient inkscape:collect="always" id="linearGradient3097">
      <stop style="stop-color:#ffe680;stop-opacity:1;" offset="0" id="stop3099"/>
      <stop style="stop-color:#ffe680;stop-opacity:0;" offset="1" id="stop3101"/>
    </linearGradient>
    <linearGradient inkscape:collect="always" id="linearGradient3073">
      <stop style="stop-color:#ffb380;stop-opacity:1;" offset="0" id="stop3075"/>
      <stop style="stop-color:#ffb380;stop-opacity:0;" offset="1" id="stop3077"/>
    </linearGradient>
    <linearGradient inkscape:collect="always" id="linearGradient3516">
      <stop style="stop-color:#ffe680;stop-opacity:1;" offset="0" id="stop3518"/>
      <stop style="stop-color:#ffe680;stop-opacity:0;" offset="1" id="stop3520"/>
    </linearGradient>
    <linearGradient inkscape:collect="always" id="linearGradient3430">
      <stop style="stop-color:#008066;stop-opacity:1;" offset="0" id="stop3432"/>
      <stop style="stop-color:#008066;stop-opacity:0.01" offset="1" id="stop3434"/>
    </linearGradient>
    <linearGradient inkscape:collect="always" id="linearGradient3402">
      <stop style="stop-color:#00aa88;stop-opacity:1;" offset="0" id="stop3404"/>
      <stop style="stop-color:#00aa88;stop-opacity:0;" offset="1" id="stop3406"/>
    </linearGradient>
    <linearGradient inkscape:collect="always" id="linearGradient3272">
      <stop style="stop-color:#005544;stop-opacity:1;" offset="0" id="stop3274"/>
      <stop style="stop-color:#005544;stop-opacity:0;" offset="1" id="stop3276"/>
    </linearGradient>
    <linearGradient inkscape:collect="always" id="linearGradient3254">
      <stop style="stop-color:#005544;stop-opacity:1;" offset="0" id="stop3256"/>
      <stop style="stop-color:#005544;stop-opacity:0;" offset="1" id="stop3258"/>
    </linearGradient>
    <linearGradient inkscape:collect="always" id="linearGradient3244">
      <stop style="stop-color:#005544;stop-opacity:1;" offset="0" id="stop3246"/>
      <stop style="stop-color:#005544;stop-opacity:0;" offset="1" id="stop3248"/>
    </linearGradient>
    <linearGradient inkscape:collect="always" id="linearGradient3234">
      <stop style="stop-color:#00aa88;stop-opacity:1;" offset="0" id="stop3236"/>
      <stop style="stop-color:#00aa88;stop-opacity:0;" offset="1" id="stop3238"/>
    </linearGradient>
    <linearGradient inkscape:collect="always" id="linearGradient3224">
      <stop style="stop-color:#008066;stop-opacity:1;" offset="0" id="stop3226"/>
      <stop style="stop-color:#008066;stop-opacity:0;" offset="1" id="stop3228"/>
    </linearGradient>
    <linearGradient inkscape:collect="always" id="linearGradient3190">
      <stop style="stop-color:#005544;stop-opacity:1;" offset="0" id="stop3192"/>
      <stop style="stop-color:#005544;stop-opacity:0;" offset="1" id="stop3194"/>
    </linearGradient>
    <inkscape:perspective sodipodi:type="inkscape:persp3d" inkscape:vp_x="0 : 526.18109 : 1" inkscape:vp_y="0 : 1000 : 0" inkscape:vp_z="744.09448 : 526.18109 : 1" inkscape:persp3d-origin="372.04724 : 350.78739 : 1" id="perspective10"/>
    <linearGradient inkscape:collect="always" xlink:href="#linearGradient3190" id="linearGradient3196" x1="455.71429" y1="618.07648" x2="-27.142857" y2="462.36218" gradientUnits="userSpaceOnUse" gradientTransform="translate(1.4285718,-4.3723977e-6)"/>
    <linearGradient inkscape:collect="always" xlink:href="#linearGradient3224" id="linearGradient3230" x1="-24.285715" y1="662.36218" x2="340" y2="533.79077" gradientUnits="userSpaceOnUse" gradientTransform="translate(-2.857143,4.2857143)"/>
    <linearGradient inkscape:collect="always" xlink:href="#linearGradient3234" id="linearGradient3240" x1="270.71429" y1="623.54266" x2="12.142858" y2="644.6778" gradientUnits="userSpaceOnUse"/>
    <linearGradient inkscape:collect="always" xlink:href="#linearGradient3244" id="linearGradient3250" x1="321.42856" y1="743.79077" x2="218.57143" y2="753.04443" gradientUnits="userSpaceOnUse" gradientTransform="translate(0,4)"/>
    <linearGradient inkscape:collect="always" xlink:href="#linearGradient3254" id="linearGradient3260" x1="-7.1428571" y1="411.64789" x2="111.42857" y2="541.64789" gradientUnits="userSpaceOnUse"/>
    <linearGradient inkscape:collect="always" xlink:href="#linearGradient3272" id="linearGradient3278" x1="19.192898" y1="673.55499" x2="81.822357" y2="716.99152" gradientUnits="userSpaceOnUse"/>
    <linearGradient inkscape:collect="always" xlink:href="#linearGradient3402" id="linearGradient3408" x1="280.64893" y1="529.00366" x2="490.60599" y2="343.01682" gradientUnits="userSpaceOnUse"/>
    <linearGradient inkscape:collect="always" xlink:href="#linearGradient3430" id="linearGradient3436" x1="323.14743" y1="379.50385" x2="338.18884" y2="562.30353" gradientUnits="userSpaceOnUse"/>
    <linearGradient inkscape:collect="always" xlink:href="#linearGradient3516" id="linearGradient3522" x1="695.79822" y1="485.17383" x2="603.68903" y2="469.60995" gradientUnits="userSpaceOnUse"/>
    <linearGradient inkscape:collect="always" xlink:href="#linearGradient3516" id="linearGradient3627" gradientUnits="userSpaceOnUse" x1="695.79822" y1="485.17383" x2="603.68903" y2="469.60995"/>
    <linearGradient inkscape:collect="always" xlink:href="#linearGradient3234" id="linearGradient3026" gradientUnits="userSpaceOnUse" x1="270.71429" y1="623.54266" x2="12.142858" y2="644.6778"/>
    <linearGradient inkscape:collect="always" xlink:href="#linearGradient3254" id="linearGradient3028" gradientUnits="userSpaceOnUse" x1="-7.1428571" y1="411.64789" x2="111.42857" y2="541.64789"/>
    <linearGradient inkscape:collect="always" xlink:href="#linearGradient3272" id="linearGradient3030" gradientUnits="userSpaceOnUse" x1="19.192898" y1="673.55499" x2="81.822357" y2="716.99152"/>
    <linearGradient inkscape:collect="always" xlink:href="#linearGradient3402" id="linearGradient3032" gradientUnits="userSpaceOnUse" x1="280.64893" y1="529.00366" x2="490.60599" y2="343.01682"/>
    <linearGradient inkscape:collect="always" xlink:href="#linearGradient3430" id="linearGradient3034" gradientUnits="userSpaceOnUse" x1="323.14743" y1="379.50385" x2="338.18884" y2="562.30353"/>
    <linearGradient inkscape:collect="always" xlink:href="#linearGradient3516" id="linearGradient3036" gradientUnits="userSpaceOnUse" x1="695.79822" y1="485.17383" x2="603.68903" y2="469.60995"/>
    <linearGradient inkscape:collect="always" xlink:href="#linearGradient3516" id="linearGradient3038" gradientUnits="userSpaceOnUse" x1="695.79822" y1="485.17383" x2="603.68903" y2="469.60995"/>
    <radialGradient inkscape:collect="always" xlink:href="#linearGradient3073" id="radialGradient3079" cx="702.19623" cy="473.61768" fx="702.19623" fy="473.61768" r="84.307701" gradientTransform="matrix(-1.5450787,0.07001662,-0.01979917,-0.51432512,1796.5219,673.60985)" gradientUnits="userSpaceOnUse"/>
    <radialGradient inkscape:collect="always" xlink:href="#linearGradient3097" id="radialGradient3103" cx="269.71072" cy="548.31934" fx="269.71072" fy="548.31934" r="282.21285" gradientTransform="matrix(-0.5404893,-0.4975365,0.47864272,-0.51996649,153.03743,974.66575)" gradientUnits="userSpaceOnUse"/>
    <radialGradient inkscape:collect="always" xlink:href="#linearGradient3105" id="radialGradient3111" cx="143.44167" cy="279.71289" fx="143.44167" fy="279.71289" r="58.242828" gradientTransform="matrix(1.3354734,2.287647,-1.0844468,0.63307464,219.85755,-141.78488)" gradientUnits="userSpaceOnUse"/>
    <radialGradient inkscape:collect="always" xlink:href="#linearGradient3113" id="radialGradient3119" cx="56.568542" cy="592.59863" fx="56.568542" fy="592.59863" r="117.25152" gradientTransform="matrix(1.249213,1.1458298,-0.31688766,0.34547815,921.20246,375.72293)" gradientUnits="userSpaceOnUse"/>
    <radialGradient inkscape:collect="always" xlink:href="#linearGradient3137" id="radialGradient3143" cx="471.74124" cy="692.10474" fx="471.74124" fy="692.10474" r="128.48656" gradientTransform="matrix(-1.8847801,-0.26730543,0.08559562,-0.60353779,1301.6286,1226.4567)" gradientUnits="userSpaceOnUse"/>
    <radialGradient inkscape:collect="always" xlink:href="#linearGradient3145" id="radialGradient3151" cx="152.53304" cy="622.58429" fx="152.53304" fy="622.58429" r="33.632375" gradientTransform="matrix(0.83074024,1.5918619,-1.1849817,0.61840289,763.56871,-19.924397)" gradientUnits="userSpaceOnUse"/>
    <radialGradient inkscape:collect="always" xlink:href="#linearGradient3155" id="radialGradient3161" cx="251.1225" cy="431.21912" fx="251.1225" fy="431.21912" r="125.71429" gradientTransform="matrix(2.0184024,0.70037023,-0.35769475,0.96254957,-101.49895,-160.33979)" gradientUnits="userSpaceOnUse"/>
    <radialGradient inkscape:collect="always" xlink:href="#linearGradient3163" id="radialGradient3169" cx="298.88907" cy="398.03793" fx="298.88907" fy="398.03793" r="49.285713" gradientTransform="matrix(4.082229,0.42182412,-0.09311435,0.93723042,-884.18151,-101.46438)" gradientUnits="userSpaceOnUse"/>
    <radialGradient inkscape:collect="always" xlink:href="#linearGradient3097" id="radialGradient3171" cx="521.23871" cy="580.70044" fx="521.23871" fy="580.70044" r="274.75028" gradientTransform="matrix(0.14706484,0.18750768,-0.34284831,0.26890238,643.67498,356.02737)" gradientUnits="userSpaceOnUse"/>
  </defs>
  <sodipodi:namedview id="base" pagecolor="#ffffff" bordercolor="#666666" borderopacity="1.0" gridtolerance="10000" guidetolerance="10" objecttolerance="10" inkscape:pageopacity="0.0" inkscape:pageshadow="2" inkscape:zoom="0.49497475" inkscape:cx="567.48834" inkscape:cy="637.44373" inkscape:document-units="px" inkscape:current-layer="layer1" showgrid="false" inkscape:window-width="1109" inkscape:window-height="953" inkscape:window-x="91" inkscape:window-y="0" inkscape:window-maximized="0"/>
  <metadata id="metadata7">
    <rdf:RDF>
      <cc:Work rdf:about="">
        <dc:format>image/svg+xml</dc:format>
        <dc:type rdf:resource="http://purl.org/dc/dcmitype/StillImage"/>
        <dc:title/>
      </cc:Work>
    </rdf:RDF>
  </metadata>
  <g inkscape:label="Layer 1" inkscape:groupmode="layer" id="layer1">
    <path style="fill:#ffd42a;fill-opacity:0.93725490000000000;stroke:none" d="m 60.6355,435.41777 c -0.460182,26.4874 -4.915086,88.20418 19.977679,158.54911 25.342531,71.61592 128.951071,160.0223 277.147321,160.02232 150.61715,0 272.875,-75.5423 272.875,-168.59375 0,-93.05143 -122.25785,-168.56249 -272.875,-168.5625 -45.33119,0 -88.08747,6.8368 -125.71875,18.9375 -46.78768,12.82761 -67.16374,-10.13513 -77.125,-20.375 -22.23524,-22.85713 -24.57316,-37.27146 -31.4375,-65.71875 -2.2658,-9.38998 -61.677283,18.09586 -62.84375,85.74107 z" id="path3157" sodipodi:nodetypes="czssscsss"/>
    <path style="fill:url(#radialGradient3171);fill-opacity:1;stroke:none" d="m 88.657797,593.59533 c 29.178483,78.91635 127.522503,158.59373 275.718753,158.59375 150.61715,0 319.65701,-96.87404 250.01786,-222.87947 -28.58245,-51.71724 -96.54356,34.29466 -247.16071,34.29465 -45.33119,0 -163.37479,-2.78753 -195.7009,-25.72322 -50.74993,-36.00757 -112.22897,-23.67669 -82.875003,55.71429 z" id="path3188" sodipodi:nodetypes="cssssz"/>
    <path style="fill:url(#radialGradient3103);fill-opacity:1;stroke:none" d="m 63.492643,447.19297 c -0.460182,26.4874 -1.172658,80.83881 22.834822,151.40626 23.571425,69.28572 120.379635,158.59372 268.575895,158.59374 150.61715,0 272.875,-68.39944 272.875,-161.45089 0,-93.05143 -122.25785,-168.56249 -272.875,-168.5625 -45.33119,0 -88.08747,6.8368 -125.71875,18.9375 -46.78768,12.82761 -67.16374,-10.13513 -77.125,-20.375 -22.23524,-22.85713 -24.57317,-37.27146 -31.4375,-65.71875 -2.26581,-9.38998 -55.963,19.52443 -57.129467,87.16964 z" id="path3198" sodipodi:nodetypes="czssscsss"/>
    <path style="fill:#ffdd55;fill-opacity:0.93725700000000001;fill-rule:evenodd;stroke:none" d="M 467.55407,614.81323 C 441.80282,579.3276 350.2899,572.90266 306.12549,586.24181 c -44.57905,13.46438 -31.42858,14.28571 -79.99999,22.85714 -48.57143,8.57143 -80,-11.42857 -80,-11.42857 0,0 -3.34675,19.0084 2.85714,37.14286 37.14286,108.57143 242.10935,137.39619 298.57143,101.42857 53.36511,-33.99474 46.42561,-85.01367 20,-121.42858 z" id="path3159" sodipodi:nodetypes="czscssz"/>
    <path style="fill:url(#radialGradient3143);fill-opacity:1;fill-rule:evenodd;stroke:none" d="m 473.86008,709.05833 c -25.71428,34.28572 -58.57143,37.14286 -85.71428,37.14286 -27.14286,0 -67.14286,-4.28572 -87.14286,-10 -20,-5.71429 -71.80439,-15.20962 -71.42857,-31.42858 0.41093,-17.73477 64.28572,-102.85714 121.42856,-112.85714 48.84782,-8.54837 94.61188,7.53806 112.85715,25.71429 14.44977,14.39508 37.14285,44.28571 10,91.42857 z" id="path3242" sodipodi:nodetypes="csszssc"/>
    <path style="fill:#ffcc00;fill-rule:evenodd;stroke:none" d="m 119.19799,348.81124 c -25.75888,9.09137 -46.005578,39.32395 -51.265231,59.09392 -4.507627,16.94326 -6.313454,40.65864 -6.313454,40.65864 0,0 9.2939,-34.4977 11.869293,-39.64849 2.020305,-4.04061 3.137325,-6.93857 9.34391,-5.55584 4.324229,0.96337 15.193773,17.44586 20.708132,20.20305 4.54568,2.27285 -16.162445,-21.71828 -17.172597,-30.80965 -1.010153,-9.09138 9.964463,-24.76413 17.172597,-30.80966 l 15.65735,-13.13197 z" id="path3186" sodipodi:nodetypes="cscsssszc"/>
    <path style="fill:#ffcc00;fill-opacity:1;fill-rule:evenodd;stroke:none" d="m 470.41119,619.09893 c -38.44887,-54.04061 -128.7612,-37.30514 -140.10152,-35.8876 -34.28571,4.28571 -52.17768,15.61804 -74.89847,21.60189 -27.20416,7.16462 -60.86218,11.60996 -86.42857,3.34735 -21.58963,-6.97739 6.42857,9.87744 6.42857,9.87744 0,0 15.41842,13.39812 42.56128,7.68384 27.14286,-5.71429 77.01486,-23.53864 105.05076,-30.41843 28.38631,-6.96578 63.60375,-6.84523 92.38795,-0.4902 17.0119,3.75591 28.27556,7.36694 55,24.28571 z" id="path3232" sodipodi:nodetypes="cssscsssc"/>
    <path style="fill:url(#radialGradient3111);fill-opacity:1;fill-rule:evenodd;stroke:none" d="m 180.74912,439.69067 c -50,-23.57143 -57.85714,-66.42857 -59.28572,-75.71429 -0.86889,-5.64783 -5,-13.57143 -5,-13.57143 0,0 -28.645089,25.80235 -27.142849,38.57143 1.42857,12.14286 16.577819,35.61434 29.999999,50.71429 17.14285,19.28571 34.85934,50.12747 60,55.71429 19.28571,4.28571 10,-3.57143 9.28571,-4.28572 -27.1804,-27.18045 -28.94427,-38.385 -20,-42.85714 8.57143,-4.28571 37.14286,-5 37.14286,-5 l -25,-3.57143 z" id="path3252" sodipodi:nodetypes="cscssssscc"/>
    <path style="fill:url(#radialGradient3151);fill-opacity:1;fill-rule:evenodd;stroke:none" d="m 146.96232,606.55869 c 2.85714,24.28571 17.14286,52.85714 28.57143,61.42857 11.42857,8.57143 38.57143,27.14286 38.57143,27.14286 0,0 -28.57143,-17.14286 -28.57143,-35.71429 0,-18.57143 20,-34.28571 20,-34.28571 0,0 -31.42857,-2.85715 -40,-11.42857 -8.57143,-8.57143 -20,-10 -18.57143,-7.14286 z" id="path3262"/>
    <path sodipodi:type="arc" style="fill:#ffcc00;fill-opacity:0.93596047999999998;stroke:none" id="path2385" sodipodi:cx="362.85715" sodipodi:cy="458.07648" sodipodi:rx="125.71429" sodipodi:ry="128.57143" d="m 488.57143,458.07648 a 125.71429,128.57143 0 1 1 -251.42857,0 125.71429,128.57143 0 1 1 251.42857,0 z" transform="translate(103.48371,-64.100086)"/>
    <path sodipodi:type="arc" style="fill:#ffd42a;fill-opacity:0.93596048;stroke:none" id="path3292" sodipodi:cx="362.85715" sodipodi:cy="458.07648" sodipodi:rx="125.71429" sodipodi:ry="128.57143" d="m 488.57143,458.07648 a 125.71429,128.57143 0 1 1 -251.42857,0 125.71429,128.57143 0 1 1 251.42857,0 z" transform="matrix(0.9602273,0,0,0.9777778,118.2114,-52.471732)"/>
    <path sodipodi:type="arc" style="fill:url(#radialGradient3161);fill-opacity:1;stroke:none" id="path3330" sodipodi:cx="362.85715" sodipodi:cy="458.07648" sodipodi:rx="125.71429" sodipodi:ry="128.57143" d="m 488.57143,458.07648 a 125.71429,128.57143 0 1 1 -251.42857,0 125.71429,128.57143 0 1 1 251.42857,0 z" transform="matrix(0.8758248,0,0,0.9063621,153.81713,-26.849256)"/>
    <path sodipodi:type="arc" style="opacity:0.29807690999999997;fill:url(#radialGradient3169);fill-opacity:1;stroke:none" id="path3428" sodipodi:cx="315" sodipodi:cy="391.64789" sodipodi:rx="49.285713" sodipodi:ry="46.42857" d="m 364.28571,391.64789 a 49.285713,46.42857 0 1 1 -98.57142,0 49.285713,46.42857 0 1 1 98.57142,0 z" transform="matrix(1.1397102,0,0,1.1175386,76.546065,-88.041702)"/>
    <path style="fill:#ff6600;fill-rule:evenodd;stroke:none" d="m 533.3257,471.44396 c 13.20948,6.14299 80.74874,18.01036 111.02398,4.34519 27.59054,-12.4534 45.41015,-51.75878 38.92676,-53.3858 -16.17825,-4.05997 -165.35906,-10.72138 -165.71939,18.94781 -0.14545,11.97637 2.55917,23.94981 15.76865,30.0928 z" id="path3298" sodipodi:nodetypes="csssz"/>
    <g style="fill:#ff7f2a;stroke:none" id="g3446" transform="translate(-20.20305,-56.568542)">
      <path sodipodi:nodetypes="czssssc" id="path3296" d="m 536.46702,497.59497 c 7.14286,-12.85714 20.12331,-37.07361 35.71428,-46.23423 15.16836,-8.91232 31.42858,-14.28571 41.42858,-4.28571 10,10 14.28571,20 44.28571,25.71428 30,5.71429 48.20373,-6.06219 47.14286,5.71429 -2.7549,30.58165 -40.90863,56.37781 -94.28571,48.57143 -35.75991,-5.22987 -44.84772,-8.64322 -74.28572,-29.48006 z" style="fill:#ff7f2a;fill-rule:evenodd;stroke:none"/>
    </g>
    <g id="g3312" transform="translate(139.69542,-38.799111)" style="stroke:none">
      <path transform="matrix(0.7297297,0,0,0.7560976,334.82625,226.22074)" d="m 97.142857,248.07646 c 0,32.34811 -23.66495,58.57143 -52.857144,58.57143 -29.192194,0 -52.8571432,-26.22332 -52.8571432,-58.57143 0,-32.34811 23.6649492,-58.57143 52.8571432,-58.57143 29.192194,0 52.857144,26.22332 52.857144,58.57143 z" sodipodi:ry="58.57143" sodipodi:rx="52.857143" sodipodi:cy="248.07646" sodipodi:cx="44.285713" id="path3294" style="fill:#ffffff;fill-opacity:1;stroke:none" sodipodi:type="arc"/>
      <path d="m 398.57143,419.50504 c 0,14.2016 -9.2741,25.71428 -20.71428,25.71428 -11.44019,0 -20.71429,-11.51268 -20.71429,-25.71428 0,-14.20161 9.2741,-25.71429 20.71429,-25.71429 11.44018,0 20.71428,11.51268 20.71428,25.71429 z" sodipodi:ry="25.714285" sodipodi:rx="20.714285" sodipodi:cy="419.50504" sodipodi:cx="377.85715" id="path3300" style="fill:#000000;fill-opacity:1;stroke:none" sodipodi:type="arc"/>
      <path d="m 375.71427,409.86218 c 0,6.90356 -5.27664,12.5 -11.78571,12.5 -6.50907,0 -11.78572,-5.59644 -11.78572,-12.5 0,-6.90356 5.27665,-12.5 11.78572,-12.5 6.50907,0 11.78571,5.59644 11.78571,12.5 z" sodipodi:ry="12.5" sodipodi:rx="11.785714" sodipodi:cy="409.86218" sodipodi:cx="363.92856" id="path3304" style="fill:#ffffff;fill-opacity:1;stroke:none" sodipodi:type="arc"/>
    </g>
    <g id="g3317" transform="translate(125.8122,-36.324881)" style="stroke:none">
      <path sodipodi:open="true" sodipodi:end="6.2686269" sodipodi:start="0" transform="matrix(0.9915068,-0.1300547,0.1300547,0.9915068,-56.196406,61.388714)" d="m 472.14286,390.57648 c 0,15.97681 -6.55583,28.92857 -14.64286,28.92857 -8.08703,0 -14.64286,-12.95176 -14.64286,-28.92857 0,-15.97681 6.55583,-28.92857 14.64286,-28.92857 8.0039,0 14.52478,12.69652 14.6413,28.50743" sodipodi:ry="28.928572" sodipodi:rx="14.642857" sodipodi:cy="390.57648" sodipodi:cx="457.5" id="path3306" style="fill:#ffffff;fill-opacity:1;stroke:none" sodipodi:type="arc"/>
      <path transform="matrix(0.4482759,0,0,0.6111111,282.75862,133.85514)" d="m 398.57143,419.50504 c 0,14.2016 -9.2741,25.71428 -20.71428,25.71428 -11.44019,0 -20.71429,-11.51268 -20.71429,-25.71428 0,-14.20161 9.2741,-25.71429 20.71429,-25.71429 11.44018,0 20.71428,11.51268 20.71428,25.71429 z" sodipodi:ry="25.714285" sodipodi:rx="20.714285" sodipodi:cy="419.50504" sodipodi:cx="377.85715" id="path3308" style="fill:#000000;fill-opacity:1;stroke:none" sodipodi:type="arc"/>
      <path transform="translate(-15,5)" d="m 468.57142,379.86218 c 0,4.53663 -3.19797,8.21429 -7.14286,8.21429 -3.94489,0 -7.14286,-3.67766 -7.14286,-8.21429 0,-4.53662 3.19797,-8.21428 7.14286,-8.21428 3.94489,0 7.14286,3.67766 7.14286,8.21428 z" sodipodi:ry="8.2142859" sodipodi:rx="7.1428571" sodipodi:cy="379.86218" sodipodi:cx="461.42856" id="path3310" style="fill:#ffffff;fill-opacity:1;stroke:none" sodipodi:type="arc"/>
    </g>
    <g id="g3464" transform="matrix(0.9460822,0,0,0.8719834,16.507436,5.1985838)" style="fill:url(#radialGradient3079);fill-opacity:1;stroke:none">
      <path sodipodi:nodetypes="czssssc" id="path3466" d="m 536.46702,497.59497 c 7.14286,-12.85714 20.12331,-37.07361 35.71428,-46.23423 15.16836,-8.91232 31.42858,-14.28571 41.42858,-4.28571 10,10 14.28571,20 44.28571,25.71428 30,5.71429 48.20373,-6.06219 47.14286,5.71429 -2.7549,30.58165 -40.90863,56.37781 -94.28571,48.57143 -35.75991,-5.22987 -44.84772,-8.64322 -74.28572,-29.48006 z" style="fill:url(#radialGradient3079);fill-opacity:1;fill-rule:evenodd;stroke:none"/>
    </g>
  </g>
</svg>